<svg width="171" height="105" viewBox="0 0 171 105" fill="none" xmlns="http://www.w3.org/2000/svg">
<path d="M92.497 77.0548C92.497 76.9423 93.3994 72.5985 93.4798 72.3241C93.5193 72.1892 93.2211 72.1778 89.0514 72.1547L84.5806 72.13L84.0795 71.9281C83.4639 71.68 82.9013 71.1751 82.6102 70.6094C82.434 70.267 82.3841 70.0322 82.3576 69.4207C82.3262 68.6951 82.3956 68.3252 83.8097 61.6769C85.4529 53.9515 85.4381 54.0028 86.2649 53.179C86.7627 52.6831 87.3995 52.3102 88.0393 52.1398C88.3948 52.0451 90.0501 52.0235 97.0055 52.0227C101.697 52.0221 105.537 52.0503 105.538 52.0852C105.539 52.1201 104.35 57.778 102.896 64.6582L100.253 77.1677H96.375C93.2003 77.1677 92.497 77.1472 92.497 77.0548ZM94.1377 69.1455C94.1754 69.0173 96.9725 55.8362 97.1203 55.0909L97.1748 54.8157H95.1414H93.108L93.0608 55.0062C92.9933 55.2786 90.0416 69.2092 90.0416 69.2554C90.0416 69.2764 90.9535 69.2937 92.0679 69.2937C93.9247 69.2937 94.0979 69.2813 94.1377 69.1455ZM61.7206 72.0531C60.7634 71.8159 60.033 71.2123 59.7176 70.398C59.3521 69.4543 59.3718 69.3297 61.3198 60.2767L63.0869 52.064L67.0077 52.042L70.9285 52.02L70.8808 52.2537C70.8546 52.3822 70.0306 56.2309 69.0497 60.8063C68.0688 65.3817 67.2663 69.1632 67.2663 69.2095C67.2663 69.263 68.005 69.2937 69.2914 69.2937H71.3166L71.3942 68.9339C71.4368 68.736 72.2686 64.85 73.2425 60.2983L75.0133 52.0226L78.8868 52.0221C82.2846 52.0215 82.7603 52.0373 82.7603 52.1494C82.7603 52.371 79.3753 68.2991 79.2338 68.7433C78.7117 70.3824 77.2844 71.706 75.6701 72.0481C74.8908 72.2132 62.3851 72.2177 61.7206 72.0531ZM104.354 72.1089C104.356 72.0739 105.548 66.4256 107.004 59.557L109.649 47.0687L113.592 47.0467L117.534 47.0247L117.288 48.1897C117.152 48.8305 116.915 49.9548 116.76 50.6882L116.479 52.0217H121.11C126.318 52.0217 126.304 52.0203 126.979 52.6149C127.192 52.8019 127.454 53.1355 127.562 53.3562C127.935 54.12 127.893 54.4044 126.299 61.8431C125.506 65.5451 124.774 68.7926 124.673 69.0597C124.263 70.1451 123.438 71.0622 122.366 71.626C121.31 72.1808 121.519 72.1693 112.499 72.1709C108.017 72.1718 104.352 72.1438 104.354 72.1089ZM118.418 62.1817C119.245 58.2934 119.923 55.0453 119.925 54.9639C119.929 54.8268 119.778 54.8157 117.91 54.8157H115.892L115.795 55.2602C115.741 55.5047 115.069 58.6765 114.301 62.3087C113.532 65.9409 112.883 68.9991 112.858 69.1047L112.813 69.2967L114.864 69.2741L116.915 69.2514L118.418 62.1817ZM129.914 72.0176C128.537 71.658 127.681 70.3976 127.832 68.9519C127.906 68.2429 129.556 60.471 129.722 60.0497C130.077 59.1465 130.757 58.4265 131.691 57.965L132.324 57.652L137.207 57.6282L142.09 57.6045L142.367 56.3159C142.519 55.6072 142.662 54.9797 142.683 54.9215C142.714 54.8378 141.881 54.8157 138.692 54.8157C136.475 54.8157 134.661 54.7871 134.661 54.7522C134.661 54.7172 134.784 54.0886 134.935 53.3552L135.211 52.0217H141.821C149.324 52.0217 149.017 51.9965 149.738 52.6709C150.261 53.1597 150.454 53.6453 150.442 54.4347C150.435 54.8568 149.916 57.4521 148.64 63.4517C147.653 68.0851 146.826 71.9427 146.802 72.0242C146.759 72.164 146.298 72.1721 138.613 72.1675C131.208 72.163 130.42 72.1495 129.914 72.0176ZM140.513 65.018C141.016 62.6897 141.429 60.718 141.431 60.6365C141.434 60.4994 141.282 60.4884 139.402 60.4884C138.285 60.4884 137.37 60.5169 137.37 60.5519C137.37 60.6202 135.644 68.6781 135.547 69.0643L135.489 69.2967L137.543 69.2741L139.598 69.2514L140.513 65.018ZM150.409 72.1469C150.409 72.1328 151.243 68.1975 152.261 63.4017C154.315 53.7343 154.239 54.0081 155.101 53.169C155.605 52.6788 156.244 52.3073 156.873 52.1398C157.224 52.0464 158.554 52.0235 163.68 52.0227C167.185 52.0221 170.052 52.0347 170.052 52.0506C170.052 52.1111 169.536 54.5263 169.493 54.6675C169.451 54.8057 169.195 54.8157 165.698 54.8157H161.949L161.698 55.9799C161.56 56.6201 160.725 60.5253 159.844 64.6579L158.241 72.1717L154.325 72.172C152.171 72.1722 150.409 72.1609 150.409 72.1469Z" fill="#151515"/>
<path d="M30.1466 33.9785L28.9982 35.1387C26.1169 38.0452 18.9489 40.7658 13.5372 42.3066C7.95594 43.8955 2.97825 44.7841 2.46692 44.873L1.12512 45.1055L1.12707 46.4668C1.13727 58.4644 4.33128 73.9892 10.7443 85.7715C13.5801 90.9816 16.7419 95.2977 19.9142 98.4844C23.0865 101.671 26.247 103.778 29.3439 104.367L29.6466 104.424L29.9493 104.367C33.1951 103.746 36.4084 101.182 39.7032 97.584C42.9981 93.9857 46.2906 89.2692 49.1232 84.0723C55.5052 72.3632 59.1556 58.4914 59.1661 46.4668V45.1055L57.8243 44.873C57.3137 44.7843 52.337 43.8955 46.756 42.3066C41.3443 40.7658 34.1762 38.0452 31.295 35.1387L30.1466 33.9785Z" fill="#85BE19"/>
<path d="M29.0809 100.867C22.9304 98.7837 15.0318 89.0024 9.62941 76.7787C5.56495 67.5824 3.09678 57.2669 2.88104 48.5747L2.82825 46.448L3.62412 46.3044C6.31788 45.8186 10.5772 44.8155 13.7991 43.9082L15.8123 43.3412L14.8151 42.3968C13.6082 41.2537 10.6446 38.1258 9.45474 36.7391C7.3674 34.3066 6.95281 33.559 6.58618 31.5667C5.73034 26.916 4.42303 17.6085 3.91642 12.559C3.50043 8.41282 3.48809 7.77238 3.7513 3.98653C3.87999 2.13551 4.00704 0.621017 4.03364 0.621017C4.06023 0.621017 4.53656 1.6783 5.09212 2.97052C7.83588 9.35241 9.77173 13.5335 14.9608 24.2854C16.9107 28.3257 18.2588 31.162 20.2323 35.3767C21.3231 37.7062 21.5088 38.1632 21.5569 38.6364C21.6011 39.0706 21.7017 39.3517 22.0334 39.969C22.2647 40.3992 22.492 40.7388 22.5386 40.7235C22.6356 40.6918 22.6117 37.2804 22.4925 34.149C22.4509 33.0547 22.3772 30.7878 22.3288 29.1114C22.1244 22.0361 22.0575 20.3483 21.8877 17.9777C21.732 15.8039 21.7043 14.5303 21.6741 8.15636L21.6393 0.832683L22.0542 1.29836C23.6208 3.05643 24.5196 4.10933 24.9528 4.69347C26.3673 6.60127 28.0474 9.81174 29.3966 13.1849C29.913 14.4761 32.9327 23.3568 33.379 24.897C33.6231 25.7393 33.6443 26.4266 33.4549 27.3581C33.2062 28.581 31.5971 34.8845 31.0885 36.6285L30.9703 37.0335L31.7498 37.6102C35.2093 40.1695 41.174 42.5713 49.1239 44.6063C51.3789 45.1835 54.804 45.9527 56.5111 46.2654L57.5483 46.4554L57.5471 46.7157C57.5466 46.8589 57.5091 47.8142 57.4639 48.8387C57.1657 55.6005 55.8555 62.4503 53.5286 69.4127C49.2197 82.3057 41.774 93.98 34.5869 99.1118C34.2285 99.3678 33.9586 99.6005 33.9872 99.6291C34.0158 99.6577 33.9777 99.681 33.9027 99.681C33.8277 99.681 33.3736 99.8885 32.8938 100.142C31.8957 100.669 30.6242 101.121 30.1461 101.119C29.9667 101.118 29.4874 101.004 29.0809 100.867ZM31.3195 96.8276C35.9157 93.016 38.7066 87.8697 39.3971 81.9332C39.5661 80.4808 39.5169 77.247 39.3059 75.932C38.9649 73.8068 38.4328 71.9569 37.7718 70.5977L37.401 69.8353L36.1928 69.9055C34.6171 69.9971 31.684 69.918 30.4635 69.7509C28.5489 69.4888 26.9349 69.0094 25.4173 68.252C24.0458 67.5675 22.8656 66.7457 23.2542 66.7457C23.2985 66.7457 23.5748 66.913 23.868 67.1174C24.6265 67.6462 25.8746 68.2886 26.8311 68.6426C29.2587 69.5411 31.8732 69.8518 35.7466 69.7018C38.7621 69.5851 39.1421 69.4548 40.6535 68.0192C41.1388 67.5583 41.8153 66.9927 42.1568 66.7622C43.595 65.7918 44.0012 64.8775 43.8748 62.8957C43.8289 62.176 43.7624 61.8327 43.5797 61.3717C43.2197 60.4632 42.95 59.5627 42.2213 56.8356C41.3756 53.6704 40.9779 52.3769 40.4539 51.0861C39.745 49.3399 39.0272 48.2845 38.1396 47.6828C37.8479 47.485 37.0928 46.9379 36.4615 46.4668C34.0836 44.6922 32.3857 43.8823 29.2652 43.0343C28.5458 42.8388 27.9459 42.6692 27.932 42.6573C27.9181 42.6455 28.3443 41.0216 28.8789 39.0486C31.5156 29.3189 32.2076 26.5072 32.1057 25.9364C32.025 25.4836 28.8042 15.8212 28.2535 14.3794C27.4364 12.2404 26.38 9.9599 25.3512 8.11403C24.889 7.2849 23.6442 5.3887 23.2945 4.98136L23.0765 4.72737L23.118 9.5957C23.1445 12.7088 23.2063 15.1203 23.2895 16.2844C23.5326 19.6854 23.679 23.0058 23.7691 27.164C23.8185 29.4458 23.8758 31.3889 23.8963 31.482C23.9169 31.5752 23.9717 33.2325 24.018 35.165C24.0644 37.0976 24.1274 39.3877 24.1579 40.2542L24.2134 41.8297L24.9846 41.8826C25.8355 41.941 26.3909 42.068 26.3909 42.2043C26.3909 42.2638 26.2451 42.2695 25.9464 42.2215C25.2297 42.1063 22.9364 42.1348 22.4288 42.2653C22.0342 42.3667 21.9742 42.4111 21.9294 42.6346C21.8961 42.8013 21.8586 42.849 21.8204 42.7734C21.7884 42.7099 21.394 41.9682 20.9439 41.1251C20.2147 39.7591 20.1256 39.5447 20.1256 39.1576C20.1256 38.7725 19.9586 38.3651 18.6541 35.5683C16.9858 31.9915 15.3463 28.5463 12.8013 23.2694C9.48239 16.3878 7.26423 11.6666 5.80016 8.36802C5.42813 7.52982 5.10297 6.82498 5.07759 6.80169C4.99392 6.72493 5.13466 9.52027 5.3069 11.356C5.74745 16.0515 6.65246 22.7882 7.68647 29.069C8.27644 32.6526 8.28096 32.6698 8.86513 33.5422C10.0583 35.3242 13.8605 39.4683 17.0246 42.4355L18.03 43.3783L17.6719 43.7668C17.0224 44.4714 16.2498 46.3497 15.3377 49.4416C15.13 50.1457 14.8301 51.003 14.6713 51.3466C13.7551 53.3298 13.4576 57.2664 14.1447 58.3151C14.2211 58.4317 14.2836 58.5442 14.2836 58.5651C14.2836 58.586 14.0368 58.7412 13.7352 58.9098C12.3956 59.659 10.435 61.3435 9.24688 62.7664C8.58947 63.5536 7.7507 64.8411 7.5118 65.4297L7.33194 65.8729L7.80996 67.2194C10.4945 74.7823 14.2284 81.9188 18.4373 87.5314C21.6885 91.8668 25.2656 95.2174 28.1896 96.6661C29.0361 97.0855 30.0451 97.4633 30.3459 97.4734C30.4609 97.4773 30.8366 97.228 31.3195 96.8276ZM24.796 56.8442C24.1123 56.5924 23.6048 56.2665 23.0783 55.741C22.2435 54.9079 21.9908 54.1952 21.9893 52.6699L21.9881 51.675H21.4378H20.8875V50.9446V50.2141L21.2396 50.2704C22.9848 50.5494 26.5984 53.2334 28.294 55.51L28.5333 55.8313L28.2452 56.1288C28.0868 56.2924 27.7105 56.5479 27.4091 56.6965C26.9258 56.9348 26.7658 56.9693 26.0544 56.9887C25.422 57.0059 25.1503 56.9747 24.796 56.8442Z" fill="#151515"/>
<path fill-rule="evenodd" clip-rule="evenodd" d="M21.5919 0.771469L21.6681 9.60741C21.6947 12.7333 21.7541 15.1335 21.8438 16.3887C22.0851 19.764 22.2307 23.0544 22.3204 27.1953V27.2012V27.209C22.4569 31.6243 22.5825 36.5461 22.7091 40.3027V40.3047L22.7247 40.7755C22.6295 40.7822 22.5189 40.801 22.422 40.8145C22.3612 40.7006 22.3143 40.6145 22.2501 40.4942C19.7555 34.1432 16.4614 27.523 14.1075 22.6407V22.6387C10.7915 15.7631 8.57699 11.0504 7.1251 7.77928C6.93668 7.35476 6.76037 6.96509 6.6251 6.67186C6.55746 6.52525 6.50195 6.40336 6.45518 6.30663C6.43179 6.25826 6.41096 6.21823 6.38682 6.17186C6.37475 6.14868 6.36357 6.12459 6.33994 6.08397C6.32813 6.06366 6.314 6.04085 6.28526 5.99803C6.27088 5.97662 6.25308 5.95096 6.22276 5.91209C6.19243 5.87322 6.05909 5.73277 6.05869 5.73241C6.05804 5.73181 5.61596 5.45531 5.61533 5.45506C5.61471 5.45481 4.84835 5.36708 4.84776 5.36717C4.84716 5.36727 4.19403 5.64603 4.19346 5.64647C4.19317 5.64669 4.00624 5.81804 4.00596 5.81834C4.00568 5.81865 3.91684 5.92144 3.88486 5.96678C3.62904 6.32947 3.66549 6.43185 3.64658 6.52147C3.60878 6.70071 3.61121 6.75411 3.60752 6.8242C3.60015 6.96439 3.60132 7.08818 3.60361 7.24413C3.6082 7.55601 3.62488 7.96572 3.64853 8.43553C3.69584 9.37515 3.77429 10.5427 3.86338 11.4922C4.30913 16.2431 5.21698 22.9937 6.25596 29.3047C6.55098 31.0967 6.69086 31.9922 6.8751 32.6914C7.05934 33.3906 7.36668 33.9112 7.66025 34.3496C9.06152 36.4423 12.7692 40.4243 15.9923 43.4512L16.6056 42.7832C15.4741 44.0107 14.8772 45.8791 13.9474 49.0312C13.7565 49.6784 13.4207 50.5973 13.3556 50.7383C12.7693 52.0072 12.4746 53.5744 12.3614 55.0723C12.3048 55.8212 12.2995 56.5443 12.3653 57.207C12.3914 57.4691 12.54 57.7113 12.5899 57.959C11.0632 58.9053 9.34938 60.3811 8.1329 61.8379H8.13485C7.36781 62.7564 6.57465 63.883 6.16807 64.8848L5.78135 65.8379L6.44346 67.7051C9.17364 75.3964 12.9616 82.6451 17.2774 88.4004L17.3106 88.4472L17.3497 88.4902C20.8452 92.4612 24.3127 97.1192 29.9161 98.8574L30.5977 99.0703L31.1817 98.6582C36.6153 94.8218 40.134 87.4881 40.8341 82.1211L40.8361 82.1113L40.8381 82.1015C41.0394 80.3716 41.0028 77.3504 40.7385 75.703C40.4263 73.7576 39.9004 72.1332 39.2873 70.6913C40.201 70.3632 40.8857 69.7986 41.6525 69.0702C42.0791 68.6651 42.8003 68.0774 42.967 67.9648C43.8086 67.3969 44.5243 66.7052 44.9279 65.7968C45.3315 64.8884 45.3928 63.9062 45.3225 62.8027C45.2728 62.0234 45.1571 61.416 44.9279 60.8378C44.5974 60.0039 44.3494 59.1787 43.6231 56.4609C42.7736 53.2814 42.3518 51.9077 41.797 50.541C41.0364 48.6674 40.1921 47.3223 38.9532 46.4824C38.7274 46.3293 37.9466 45.7661 37.3282 45.3047C34.8663 43.4674 32.8745 42.5194 29.6837 41.6484C29.8474 41.028 30.0454 40.2912 30.2794 39.4277C31.5986 34.5597 32.4314 31.4217 32.9278 29.4043C33.1761 28.3956 33.3401 27.6692 33.4415 27.1211C33.5429 26.573 33.6449 26.3066 33.5333 25.6816C33.4943 25.4625 33.4796 25.4496 33.4474 25.3398C33.4152 25.2301 33.3742 25.0973 33.3243 24.9375C33.2245 24.6178 33.0878 24.1943 32.9259 23.6953C32.6021 22.6973 32.1735 21.3992 31.7306 20.0703C30.8446 17.4124 29.9319 14.7106 29.6075 13.8613C28.7644 11.6541 27.6878 9.32897 26.6173 7.40819C26.3455 6.92069 25.9171 6.2408 25.4923 5.59373C25.0675 4.94666 24.7399 4.43932 24.3946 4.03709L21.5919 0.771469ZM24.5763 9.8828C25.3975 11.4622 26.2458 13.1878 26.8985 14.8965C27.1248 15.489 28.0983 18.3393 28.9806 20.9863C29.4217 22.3098 29.8481 23.6037 30.1681 24.5898C30.3281 25.0829 30.4608 25.4997 30.5548 25.8008C30.6018 25.9513 30.64 26.074 30.6642 26.1562C30.6883 26.2385 30.7068 26.3539 30.6778 26.1914C30.6172 25.8518 30.672 26.1501 30.5899 26.5937C30.5079 27.0374 30.353 27.7292 30.1114 28.7109C29.6282 30.6745 28.7961 33.8082 27.4786 38.6699C27.255 39.495 27.0725 40.1833 26.9103 40.7969C26.6791 40.6862 26.5096 40.6426 26.3302 40.6016C25.9606 40.517 25.5597 40.4682 25.0841 40.4355L25.6173 40.4726L25.6075 40.2051V40.2031C25.4818 36.4711 25.3554 31.5552 25.2188 27.1328V27.1191C25.1283 22.9509 24.981 19.604 24.7364 16.1816C24.6632 15.1572 24.6047 12.7829 24.5763 9.8828ZM7.23447 14.832C8.51947 17.5908 9.4804 19.7188 11.4962 23.8984H11.4942C13.8751 28.8368 17.163 35.4468 19.5938 41.6543L19.6251 41.7324L19.6641 41.8086C19.8888 42.2295 20.0995 42.6241 20.2579 42.9219C20.4162 43.2196 20.5658 43.5058 20.5254 43.4258V43.4278C20.6057 43.5867 20.6872 43.9189 21.336 44.1641C21.6604 44.2867 22.1325 44.2708 22.4434 44.1348C22.7543 43.9987 22.9164 43.8203 23.0176 43.6914C23.0403 43.6626 23.0176 43.6748 23.0372 43.6485C23.1132 43.6391 23.0873 43.6412 23.1856 43.6348C23.4482 43.6178 23.7845 43.6059 24.127 43.6016C24.8121 43.5931 25.6163 43.6362 25.7168 43.6524C25.9116 43.6837 26.0676 43.7116 26.336 43.7012C26.4507 43.6968 26.6275 43.6707 26.8633 43.584C26.9216 43.6628 26.9942 43.7617 26.9942 43.7618C27.0048 43.7696 27.1659 43.8886 27.1661 43.8887C27.1662 43.8888 27.2374 43.9307 27.2618 43.9434C27.3104 43.9689 27.3369 43.9805 27.3594 43.9903C27.4045 44.0097 27.427 44.0168 27.4454 44.0235C27.4821 44.0369 27.5003 44.0426 27.5196 44.0489C27.5582 44.0613 27.5925 44.072 27.6329 44.084C27.7136 44.108 27.8151 44.1367 27.9395 44.1719C28.1882 44.2422 28.5212 44.3348 28.8848 44.4336C31.9083 45.2553 33.3116 45.9257 35.5938 47.6289C36.238 48.1097 36.9686 48.6404 37.3262 48.8828C37.8625 49.2464 38.4523 50.0121 39.1094 51.6309C39.6026 52.8458 39.9785 54.0582 40.8204 57.209C41.5515 59.9454 41.843 60.9233 42.2325 61.9063C42.3687 62.2501 42.3857 62.3282 42.4278 62.9883C42.4838 63.8666 42.4048 64.3324 42.2774 64.6192C42.15 64.906 41.9423 65.1581 41.3458 65.5606C40.8286 65.9097 40.198 66.4524 39.6544 66.9688C38.9268 67.6599 38.67 67.8552 38.293 67.9844C37.9161 68.1137 37.1807 68.1944 35.6915 68.252H35.6895C31.9186 68.398 29.5458 68.1019 27.334 67.2832C26.5279 66.9849 25.2956 66.3449 24.6973 65.9278C24.5276 65.8095 24.3665 65.7047 24.2188 65.6153C24.1449 65.5705 24.0769 65.5309 23.9902 65.4864C23.9469 65.4641 23.9015 65.4401 23.8223 65.4082C23.7431 65.3764 23.7158 65.2949 23.2539 65.2949C23.1019 65.2949 22.8915 65.2886 22.5508 65.459C22.21 65.6295 21.7805 66.1767 21.7363 66.6465C21.6479 67.5861 22.0187 67.6967 22.1484 67.8438C22.4079 68.1378 22.5955 68.2561 22.8477 68.4317C23.352 68.7829 24.025 69.1773 24.7695 69.5489C26.4359 70.3805 28.2261 70.9081 30.2676 71.1875C31.7365 71.3886 34.5493 71.454 36.2774 71.3535L36.4981 71.3418C37.0515 72.5095 37.5577 74.1848 37.875 76.1621C38.0323 77.1427 38.0926 80.5721 37.957 81.7539C37.4089 85.9375 34.2045 92.447 30.0704 95.7519C25.9845 94.172 22.9444 90.4589 19.5802 86.6328C15.486 81.1666 11.8107 74.1571 9.17588 66.7344L8.88877 65.9238C8.99323 65.698 9.82388 64.3366 10.3595 63.6953C11.4055 62.4426 13.3859 60.7672 14.4435 60.1758C14.6126 60.0812 14.7643 59.9921 14.8946 59.9101C14.9598 59.8692 15.0164 59.8324 15.0899 59.7793C15.1267 59.7527 15.1646 59.726 15.2403 59.6582C15.2782 59.6243 15.3248 59.5857 15.4083 59.4824C15.4501 59.4308 15.503 59.3637 15.5685 59.2383C15.6012 59.1756 15.6699 58.9906 15.67 58.9902C15.6701 58.9898 15.7345 58.5648 15.7345 58.5644C15.7345 58.2005 15.674 58.1469 15.6485 58.0742C15.6231 58.0015 15.6059 57.9623 15.5899 57.9277C15.5581 57.8585 15.5339 57.8148 15.5099 57.7715C15.4617 57.6848 15.4135 57.605 15.3575 57.5195C15.4399 57.6453 15.295 57.3522 15.252 56.9199C15.2091 56.4876 15.2056 55.9052 15.252 55.291C15.3449 54.0626 15.6584 52.6693 15.9884 51.9551C16.2408 51.4088 16.5041 50.6126 16.7286 49.8515C17.6229 46.8199 18.5709 44.9317 18.7384 44.75L20.0704 43.3047L18.0157 41.3769C14.9202 38.4741 11.0496 34.1986 10.0704 32.7363C9.77982 32.3023 9.79134 32.3765 9.67979 31.9531C9.56823 31.5297 9.41224 30.6255 9.11729 28.834C8.29923 23.8649 7.7214 19.1141 7.23447 14.832ZM20.8243 41.8301C20.7247 42.0272 20.5281 42.2487 20.5079 42.3496C20.5065 42.3565 20.3682 42.3672 20.7364 41.8984C20.7513 41.8795 20.8059 41.8515 20.8243 41.8301ZM19.4376 48.5137V50.9453V53.125H20.5392V52.6719C20.5393 52.8381 20.6037 52.9646 20.6134 53.125C20.702 54.5905 21.1319 55.8465 22.0548 56.7676C22.6989 57.4104 23.4489 57.8935 24.295 58.2051C24.8046 58.3928 25.4025 58.4563 26.0939 58.4375C26.8462 58.417 27.5035 58.266 28.0509 57.9961C28.5142 57.7676 28.8553 57.5828 29.2872 57.1367L30.4337 55.9551L29.4571 54.6445C28.4776 53.3294 27.0794 52.0378 25.6505 50.9765C24.2216 49.9153 22.9031 49.0672 21.4688 48.8379L19.4376 48.5137ZM23.4669 53.0547C23.6613 53.1829 23.7271 53.1614 23.92 53.3047C24.8052 53.9621 25.5153 54.7504 26.2149 55.5019C26.1459 55.4999 26.1933 55.5342 26.0157 55.539C25.4422 55.5546 25.496 55.5577 25.297 55.4844C24.7757 55.2924 24.5125 55.123 24.1036 54.7148H24.1016C23.5524 54.1667 23.4835 53.9153 23.4669 53.0547Z" fill="#151515"/>
<path fill-rule="evenodd" clip-rule="evenodd" d="M39.3971 81.9332C39.5661 80.4808 39.5169 77.247 39.3059 75.932C38.9649 73.8068 38.4328 71.9569 37.7718 70.5977L37.401 69.8353L36.1928 69.9055C34.6171 69.9971 31.684 69.918 30.4635 69.7509C28.5489 69.4888 26.9349 69.0094 25.4173 68.252C24.0458 67.5675 22.8656 66.7457 23.2542 66.7457C23.2985 66.7457 23.5748 66.913 23.868 67.1174C24.6265 67.6462 25.8746 68.2886 26.8311 68.6426C29.2587 69.5411 31.8732 69.8518 35.7466 69.7018C38.7621 69.5851 39.1421 69.4548 40.6535 68.0192C41.1388 67.5583 41.8153 66.9927 42.1568 66.7622C43.595 65.7918 44.0012 64.8775 43.8748 62.8957C43.8289 62.176 43.7624 61.8327 43.5797 61.3717C43.2197 60.4632 42.95 59.5627 42.2213 56.8356C41.3756 53.6704 40.9779 52.3769 40.4539 51.0861C39.745 49.3399 39.0272 48.2845 38.1396 47.6828C37.8479 47.485 37.0928 46.9379 36.4615 46.4668C34.0836 44.6922 32.3857 43.8823 29.2652 43.0343C28.5458 42.8388 27.9459 42.6692 27.932 42.6573C27.9181 42.6455 28.3443 41.0216 28.8789 39.0486C31.5156 29.3189 32.2076 26.5072 32.1057 25.9364C32.025 25.4836 28.8042 15.8212 28.2535 14.3794C27.4364 12.2404 26.38 9.9599 25.3512 8.11403C24.889 7.2849 23.6442 5.3887 23.2945 4.98136L23.0765 4.72737L23.118 9.5957C23.1445 12.7088 23.2063 15.1203 23.2895 16.2844C23.5326 19.6854 23.679 23.0058 23.7691 27.164C23.9058 31.585 24.0317 36.5078 24.1579 40.2542L24.2134 41.8297L24.9846 41.8826C25.8355 41.941 26.3909 42.068 26.3909 42.2043C26.3909 42.2638 26.2451 42.2695 25.9464 42.2215C25.2297 42.1063 22.9364 42.1348 22.4288 42.2653C22.0342 42.3667 21.9742 42.4111 21.9294 42.6346C21.8961 42.8013 21.8586 42.849 21.8204 42.7734C21.7884 42.7099 21.394 41.9682 20.9439 41.1251C18.4789 34.8303 15.175 28.1928 12.8013 23.2694C9.48236 16.3878 7.2642 11.6666 5.80013 8.36802C5.4281 7.52982 5.10294 6.82498 5.07756 6.80169C4.99389 6.72493 5.13463 9.52027 5.30687 11.356C5.74742 16.0515 6.65243 22.7882 7.68644 29.069C8.27641 32.6526 8.28093 32.6698 8.8651 33.5422C10.0583 35.3242 13.8605 39.4683 17.0246 42.4355L18.03 43.3783L17.6719 43.7668C17.0224 44.4714 16.2498 46.3497 15.3377 49.4416C15.13 50.1457 14.8301 51.003 14.6713 51.3466C13.7551 53.3298 13.4576 57.2664 14.1447 58.3151C14.2211 58.4317 14.2836 58.5442 14.2836 58.5651C14.2836 58.586 14.0368 58.7412 13.7352 58.9098C12.3956 59.659 10.435 61.3435 9.24685 62.7664C8.58944 63.5536 7.75067 64.8411 7.51177 65.4297L7.33191 65.8729L7.80993 67.2194C10.4945 74.7823 14.2284 81.9188 18.4373 87.5314C21.9787 91.5545 25.2969 95.9072 30.3459 97.4734C35.2743 93.9937 38.7614 86.8072 39.3971 81.9332ZM23.0783 55.741C23.6048 56.2665 24.1123 56.5924 24.796 56.8442C25.1503 56.9747 25.422 57.0059 26.0544 56.9887C26.7658 56.9693 26.9258 56.9348 27.4091 56.6965C27.7105 56.5479 28.0868 56.2924 28.2452 56.1288L28.5333 55.8313L28.294 55.51C26.5984 53.2334 22.9848 50.5494 21.2396 50.2704L20.8875 50.2141V50.9446V51.675H21.4378H21.9881L21.9893 52.6699C21.9908 54.1952 22.2435 54.9079 23.0783 55.741Z" fill="#F2F2F2"/>
</svg>
